<svg id="Layer_1" data-name="Layer 1" xmlns="http://www.w3.org/2000/svg" viewBox="0 0 60 60"><defs><style>.cls-1{fill:#139a4d;}.cls-2,.cls-4{fill:#fff;}.cls-3{fill:none;}.cls-3,.cls-4{stroke:#139a4d;stroke-miterlimit:10;stroke-width:1.5px;}</style></defs><title>intake</title><circle class="cls-1" cx="30" cy="30" r="30"/><rect class="cls-2" x="14.44" y="14.26" width="31.13" height="31.13" rx="3" ry="3"/><line class="cls-3" x1="19" y1="22.48" x2="41" y2="22.48"/><line class="cls-3" x1="19" y1="26.48" x2="41" y2="26.48"/><line class="cls-3" x1="19" y1="30.49" x2="41" y2="30.49"/><line class="cls-3" x1="19" y1="34.49" x2="41" y2="34.49"/><line class="cls-3" x1="19" y1="38.49" x2="41" y2="38.49"/><path class="cls-4" d="M37.19,12.6H32.53s0-.06,0-.09A1.54,1.54,0,0,0,31,11H29a1.54,1.54,0,0,0-1.53,1.53s0,.06,0,.09H22.81a.5.5,0,0,0-.5.5v2.5a.5.5,0,0,0,.5.5H37.19a.5.5,0,0,0,.5-.5V13.1A.5.5,0,0,0,37.19,12.6Z" transform="translate(0 0)"/><circle class="cls-4" cx="42.34" cy="41.11" r="8.79"/><rect class="cls-2" x="22.65" y="12.98" width="14.63" height="2.75" rx="0.3" ry="0.3"/><rect class="cls-2" x="27.83" y="11.46" width="4.31" height="3.03" rx="0.7" ry="0.7"/><line class="cls-3" x1="38.06" y1="41.11" x2="46.62" y2="41.11"/><line class="cls-3" x1="42.34" y1="36.83" x2="42.34" y2="45.4"/></svg>