<svg id="Layer_1" data-name="Layer 1" xmlns="http://www.w3.org/2000/svg" viewBox="0 0 357.33 138.72"><defs><style>.cls-1{fill:#0d9a49;}.cls-1,.cls-2,.cls-3{fill-rule:evenodd;}.cls-2,.cls-4{fill:#232323;}.cls-3{fill:#ffcb05;}</style></defs><title>AllPaving-vector__RB-edit</title><path class="cls-1" d="M123.17,28.87,49.43,55.11H74.24Z" transform="translate(-1.67 -2.62)"/><path class="cls-1" d="M287.43,55.11h24.81L238.49,28.87Z" transform="translate(-1.67 -2.62)"/><path class="cls-2" d="M174.16,2.62,80.33,55.11h25.28Z" transform="translate(-1.67 -2.62)"/><path class="cls-2" d="M256.06,55.11h25.28L187.5,2.62Z" transform="translate(-1.67 -2.62)"/><polygon class="cls-3" points="162.63 52.48 195.7 52.48 187.03 36.85 170.5 36.85 162.63 52.48"/><polygon class="cls-3" points="174.59 17.59 183.42 17.59 187.91 27.54 170.42 27.54 174.59 17.59"/><polygon class="cls-3" points="174.19 13.57 184.14 13.57 181.9 8.92 176.44 8.92 174.19 13.57"/><polygon class="cls-3" points="177.96 1.54 181.01 1.54 181.81 4.26 176.52 4.26 177.96 1.54"/><path class="cls-4" d="M40.08,112.5H19l-3.39,10.66h-14l20.49-55H37l20.49,55h-14Zm-17.6-10.74H36.61l-7-23.21Z" transform="translate(-1.67 -2.62)"/><path class="cls-4" d="M73.7,68.14v44.28H93.94v10.74H60.15v-55Z" transform="translate(-1.67 -2.62)"/><path class="cls-4" d="M110.63,68.14v44.28h20.24v10.74H97.08v-55Z" transform="translate(-1.67 -2.62)"/><path class="cls-4" d="M182.29,86.15A16.15,16.15,0,0,1,180.39,94a17.18,17.18,0,0,1-5.27,5.85,25.13,25.13,0,0,1-7.93,3.61,37.43,37.43,0,0,1-9.88,1.25H155.9v18.67H142.29V68.13h15.94a41,41,0,0,1,9.67,1.08,22.91,22.91,0,0,1,7.64,3.28,15.4,15.4,0,0,1,5,5.6A17.12,17.12,0,0,1,182.29,86.15Zm-13.11.08q0-7.64-10.87-7.64H155.9V94.28h2.24q5.39,0,8.22-2.16A7,7,0,0,0,169.18,86.23Z" transform="translate(-1.67 -2.62)"/><path class="cls-4" d="M205.53,119.43a17,17,0,0,1-5.19,3.36,17.55,17.55,0,0,1-7.18,1.45,12.47,12.47,0,0,1-4.9-.91,10.25,10.25,0,0,1-3.61-2.49,11.09,11.09,0,0,1-2.24-3.69,12.83,12.83,0,0,1-.79-4.52q0-5.64,3.53-8.51t10-3.36q2.41-.17,5.1-.25l4.77-.17V99q0-6.64-7.39-6.64A23.36,23.36,0,0,0,192,93a22.27,22.27,0,0,0-4.94,1.83l-2.41-9.21a28.34,28.34,0,0,1,6.85-2.7,33.74,33.74,0,0,1,8.59-1q8.55,0,13.36,4.44t4.81,13.32v23.74H205.53Zm-7.22-3.9a12.79,12.79,0,0,0,3.61-.5A13.71,13.71,0,0,0,205,113.7v-6.06q-2,.17-3.57.37t-3.07.37q-4.07.5-4.07,3.82a3,3,0,0,0,1,2.41A4.31,4.31,0,0,0,198.31,115.53Z" transform="translate(-1.67 -2.62)"/><path class="cls-4" d="M231.35,123.41,217.24,82.74H230.6l7.8,28.55,7.8-28.55h13.36l-14.11,40.67Z" transform="translate(-1.67 -2.62)"/><path class="cls-4" d="M259.65,70.87a7.37,7.37,0,0,1,2.07-5.31,7.82,7.82,0,0,1,10.79,0,7.84,7.84,0,0,1,0,10.62,7.82,7.82,0,0,1-10.79,0A7.37,7.37,0,0,1,259.65,70.87Zm.83,52.54V82.74h13.28v40.67Z" transform="translate(-1.67 -2.62)"/><path class="cls-4" d="M277.74,123.41V82.74h12.78v5.31a11.12,11.12,0,0,1,4.94-4.73,15.05,15.05,0,0,1,6.43-1.41,13.13,13.13,0,0,1,6.89,1.7,13.89,13.89,0,0,1,4.61,4.52A19.88,19.88,0,0,1,316,94.65a37.13,37.13,0,0,1,.79,7.76v21H303.47V102.17q0-5.06-1.58-7.43a5.39,5.39,0,0,0-4.81-2.37,6.93,6.93,0,0,0-3.61.91A7.67,7.67,0,0,0,291,95.53v27.89Z" transform="translate(-1.67 -2.62)"/><path class="cls-4" d="M359,82.74v8.47h-6l-.08-.08a14,14,0,0,1,.91,4.81,12.79,12.79,0,0,1-1.12,5.31,12.3,12.3,0,0,1-3.32,4.36,16.14,16.14,0,0,1-5.48,2.95,24.3,24.3,0,0,1-7.59,1.08h-.5a8,8,0,0,0-.54,1.12,3.32,3.32,0,0,0-.21,1.2,1.85,1.85,0,0,0,.87,1.7,4.66,4.66,0,0,0,2.2.62l7.14.42a18.07,18.07,0,0,1,9.84,3.2q3.69,2.78,3.69,8.26a11.25,11.25,0,0,1-2,6.68,16.07,16.07,0,0,1-5.4,4.73,28.44,28.44,0,0,1-7.59,2.82,39.15,39.15,0,0,1-8.63,1,45,45,0,0,1-6.76-.5,21.32,21.32,0,0,1-5.85-1.7,11.26,11.26,0,0,1-4.15-3.2,7.64,7.64,0,0,1-1.58-4.9,6.65,6.65,0,0,1,.83-3.36,8.43,8.43,0,0,1,2.24-2.53,14,14,0,0,1,3.24-1.83,22.46,22.46,0,0,1,3.74-1.16,5.9,5.9,0,0,1-3.65-5.56,6.23,6.23,0,0,1,.62-2.82,8.93,8.93,0,0,1,1.54-2.2,10.7,10.7,0,0,1,2-1.66,14.67,14.67,0,0,1,2.12-1.12,14.5,14.5,0,0,1-8-4.86,12.61,12.61,0,0,1-2.7-8,13.48,13.48,0,0,1,1.12-5.52A12.58,12.58,0,0,1,323.27,86a15.75,15.75,0,0,1,5.48-3,24.32,24.32,0,0,1,7.59-1.08,27.43,27.43,0,0,1,3.44.21,19.74,19.74,0,0,1,3,.62Zm-26.56,40.84a19.42,19.42,0,0,0-2.07,1.83,3.81,3.81,0,0,0-1.08,2.82,3.62,3.62,0,0,0,2,3.4,11.34,11.34,0,0,0,5.44,1.08,17.58,17.58,0,0,0,3.61-.37,13.22,13.22,0,0,0,3.2-1.08,7.19,7.19,0,0,0,2.24-1.66,3.26,3.26,0,0,0,.83-2.2,2.37,2.37,0,0,0-1-2.16,7.27,7.27,0,0,0-3.28-.83Zm3.9-22.08a5.87,5.87,0,0,0,4.4-1.54,6.63,6.63,0,0,0,0-8.38,7.07,7.07,0,0,0-8.8,0,6.63,6.63,0,0,0,0,8.38A5.86,5.86,0,0,0,336.34,101.5Z" transform="translate(-1.67 -2.62)"/></svg>